<?xml version="1.0" encoding="UTF-8"?>
<svg width="719px" height="142px" viewBox="0 0 719 142" version="1.1" xmlns="http://www.w3.org/2000/svg" xmlns:xlink="http://www.w3.org/1999/xlink">
    <title>编组备份 3</title>
    <g id="页面-4" stroke="none" stroke-width="1" fill="none" fill-rule="evenodd">
        <g id="编组备份-3" transform="translate(1.000000, 1.000000)" fill="#FFFFFF">
            <path d="M24.5125316,0.090452555 L0,140 C24.9260862,140.056105 37.8484626,140.056105 38.7671293,140 C40.1451294,139.915843 40.3360044,138.483704 40.0230261,137.555718 C39.5982742,135.375462 43.6074908,132.697975 52.0506759,129.523258 C49.2055338,126.899946 46.8489619,124.094248 44.9809603,121.106164 C43.1129587,118.118079 41.3690686,112.984915 39.7492902,105.706671 C33.8959843,115.530295 30.2678177,119.41301 28.8647904,117.354815 C26.7602495,114.267521 28.1685488,105.500873 30.2661702,98.3242991 C31.6645844,93.5399166 35.2645235,83.7119014 41.0659875,68.8402535 C41.1171704,53.2448566 43.6566468,41.6632555 48.6844168,34.09545 C56.2260717,22.7437418 66.9977278,17.5648854 78.5159966,17.3090817 C90.0342653,17.053278 99.332122,20.8310943 107.525412,30.2342941 C115.718702,39.6374939 117.801046,54.1381139 118.104802,68.9480605 C122.821023,79.8508549 125.38347,88.0365846 128.6081,97.7394985 C131.83273,107.442413 131.705706,116.179083 129.615821,117.895941 C128.222564,119.040514 124.665574,114.967845 118.944853,105.677936 C117.907355,112.457782 116.545988,117.290309 114.860752,120.175517 C113.175516,123.060724 110.660936,126.084277 107.317013,129.246175 C115.209577,133.07365 119.085524,135.981608 118.944853,137.970048 C118.944853,139.323349 119.390469,140 120.2817,140 L140.710834,140 L160,26.5744794 L129.351117,0 L24.5125316,0.090452555 Z" id="路径备份" stroke="#C4C4C6"></path>
            <path d="M190.24,119.6 L195.952,87.344 L226.304,87.344 L220.592,119.6 L235.712,119.6 L245.008,66.736 C246.128,60.5386667 246.688,55.4613333 246.688,51.504 C246.688,45.1573333 244.858667,40.6773333 241.2,38.064 C237.541333,35.4506667 231.194667,34.144 222.16,34.144 L218.576,34.144 C208.794667,34.144 201.962667,35.04 198.08,36.832 C195.466667,38.0266667 193.189333,40.024 191.248,42.824 C189.306667,45.624 187.626667,51.0933333 186.208,59.232 L175.456,119.6 L190.24,119.6 Z M228.432,75.136 L198.08,75.136 L200.432,61.696 C201.253333,57.1413333 202.037333,54.08 202.784,52.512 C203.530667,50.944 204.352,49.7866667 205.248,49.04 C207.264,47.3973333 211.184,46.576 217.008,46.576 L219.92,46.576 C224.474667,46.576 227.554667,47.08 229.16,48.088 C230.765333,49.096 231.568,51.0933333 231.568,54.08 C231.568,56.4693333 231.045333,60.6133333 230,66.512 L228.432,75.136 Z M276.993781,119.6 L281.809781,108.288 L274.860881,108.28716 C272.032415,108.27652 269.962048,108.1648 268.649781,107.952 C267.268448,107.728 266.353781,107.242667 265.905781,106.496 C265.457781,105.749333 265.233781,104.853333 265.233781,103.808 C265.233781,102.165333 265.756448,98.544 266.801781,92.944 L276.993781,34 L263.105781,34 L252.913781,92.944 C251.719115,99.7386667 251.121781,104.48 251.121781,107.168 C251.121781,111.797333 252.521781,115.026667 255.321781,116.856 C258.121781,118.685333 262.695115,119.6 269.041781,119.6 L276.993781,119.6 Z M313.571563,119.6 L318.387563,108.288 L311.438663,108.28716 C308.610196,108.27652 306.539829,108.1648 305.227563,107.952 C303.846229,107.728 302.931563,107.242667 302.483563,106.496 C302.035563,105.749333 301.811563,104.853333 301.811563,103.808 C301.811563,102.165333 302.334229,98.544 303.379563,92.944 L313.571563,34 L299.683563,34 L289.491563,92.944 C288.296896,99.7386667 287.699563,104.48 287.699563,107.168 C287.699563,111.797333 289.099563,115.026667 291.899563,116.856 C294.699563,118.685333 299.272896,119.6 305.619563,119.6 L313.571563,119.6 Z M351.717344,120.384 C356.570677,120.384 360.528011,120.029333 363.589344,119.32 C366.650677,118.610667 369.077344,117.434667 370.869344,115.792 C372.288011,114.522667 373.576011,112.693333 374.733344,110.304 C375.890677,107.914667 376.954677,103.957333 377.925344,98.432 L380.837344,81.968 C381.733344,76.816 382.181344,72.8213333 382.181344,69.984 C382.181344,64.6826667 380.632011,60.912 377.533344,58.672 C374.434677,56.432 369.301344,55.312 362.133344,55.312 L354.405344,55.312 C349.552011,55.312 345.613344,55.648 342.589344,56.32 C339.565344,56.992 337.120011,58.1493333 335.253344,59.792 C333.312011,61.4346667 331.856011,63.5813333 330.885344,66.232 C329.914677,68.8826667 329.018677,72.56 328.197344,77.264 L325.285344,93.728 C324.314677,99.2533333 323.829344,103.248 323.829344,105.712 C323.829344,111.013333 325.397344,114.784 328.533344,117.024 C331.669344,119.264 336.821344,120.384 343.989344,120.384 L351.717344,120.384 Z M347.573344,109.072 C343.840011,109.072 341.282677,108.698667 339.901344,107.952 C338.520011,107.205333 337.829344,105.674667 337.829344,103.36 C337.829344,101.717333 338.277344,98.5066667 339.173344,93.728 L342.085344,77.264 C342.906677,72.8586667 343.952011,70.0213333 345.221344,68.752 C346.714677,67.2586667 349.477344,66.512 353.509344,66.512 L358.437344,66.512 C362.096011,66.512 364.634677,66.904 366.053344,67.688 C367.472011,68.472 368.181344,70.0213333 368.181344,72.336 C368.181344,74.352 367.770677,77.5626667 366.949344,81.968 L364.037344,98.432 C363.290677,102.464 362.245344,105.264 360.901344,106.832 C360.080011,107.802667 359.016011,108.418667 357.709344,108.68 C356.402677,108.941333 354.741344,109.072 352.725344,109.072 L347.573344,109.072 Z M415.623125,139.536 C421.596459,139.536 425.927125,138.770667 428.615125,137.24 C431.303125,135.709333 433.300459,133.6 434.607125,130.912 C435.913792,128.224 436.903125,125.013333 437.575125,121.28 L448.999125,56.096 L435.223125,56.096 L427.047125,101.904 L412.935125,101.904 C409.201792,101.904 406.644459,101.530667 405.263125,100.784 C403.881792,100.037333 403.191125,98.5066667 403.191125,96.192 C403.191125,94.176 403.601792,90.9653333 404.423125,86.56 L409.799125,56.096 L395.911125,56.096 L390.535125,86.56 C389.564459,92.0853333 389.079125,96.08 389.079125,98.544 C389.079125,103.845333 390.647125,107.616 393.783125,109.856 C396.919125,112.096 402.033792,113.216 409.127125,113.216 L425.031125,113.216 L424.247125,117.584 C423.649792,120.794667 423.052459,123.090667 422.455125,124.472 C421.857792,125.853333 420.905792,126.805333 419.599125,127.328 C418.292459,127.850667 415.921792,128.112 412.487125,128.112 L389.415125,128.112 L391.431125,139.536 L415.623125,139.536 Z M475.272907,119.6 L488.040907,47.248 L508.648907,47.248 L511.202861,34.816 L475.272907,34.816 L454.440907,34.816 L452.200907,47.248 L472.920907,47.248 L460.152907,119.6 L475.272907,119.6 Z M541.082688,119.6 L545.674688,108.288 L523.162688,108.288 C519.877355,108.288 517.637355,107.952 516.442688,107.28 C515.248021,106.608 514.650688,105.338667 514.650688,103.472 C514.650688,102.277333 514.837355,100.634667 515.210688,98.544 L515.770688,95.072 L540.410688,95.072 C544.965355,95.072 548.344021,94.064 550.546688,92.048 C552.749355,90.032 554.298688,86.56 555.194688,81.632 L556.762688,72.784 C557.061355,71.216 557.210688,69.5733333 557.210688,67.856 C557.210688,63.3013333 555.736021,60.072 552.786688,58.168 C549.837355,56.264 545.301355,55.312 539.178688,55.312 L531.562688,55.312 C526.709355,55.312 522.770688,55.648 519.746688,56.32 C516.722688,56.992 514.277355,58.1493333 512.410688,59.792 C510.992021,60.9866667 509.741355,62.648 508.658688,64.776 C507.576021,66.904 506.661355,69.9466667 505.914688,73.904 L501.546688,98.992 C501.024021,102.128 500.762688,104.741333 500.762688,106.832 C500.762688,111.386667 502.256021,114.653333 505.242688,116.632 C508.229355,118.610667 513.306688,119.6 520.474688,119.6 L541.082688,119.6 Z M517.786688,84.208 L519.578688,73.904 C520.026688,71.5146667 520.754688,69.6853333 521.762688,68.416 C522.770688,67.1466667 524.992021,66.512 528.426688,66.512 L536.378688,66.512 C539.589355,66.512 541.530688,66.848 542.202688,67.52 C542.874688,68.192 543.210688,69.0506667 543.210688,70.096 L542.874688,72.784 L541.642688,80.064 C541.344021,81.856 540.746688,82.9946667 539.850688,83.48 C538.954688,83.9653333 537.946688,84.208 536.826688,84.208 L517.786688,84.208 Z M608.348469,119.6 L615.516469,78.608 C616.487136,72.6346667 616.972469,68.976 616.972469,67.632 C616.972469,63.6 615.609803,60.6693333 612.884469,58.84 C610.159136,57.0106667 605.660469,56.096 599.388469,56.096 L570.268469,56.096 L572.172469,67.408 L594.684469,67.408 C597.820469,67.408 599.985803,67.744 601.180469,68.416 C602.375136,69.088 602.972469,70.2453333 602.972469,71.888 C602.972469,72.9333333 602.599136,75.472 601.852469,79.504 L601.852469,79.616 L585.052469,79.616 C579.079136,79.616 574.785803,79.952 572.172469,80.624 C569.484469,81.3706667 567.412469,82.7706667 565.956469,84.824 C564.500469,86.8773333 563.361803,89.9946667 562.540469,94.176 L561.756469,98.096 C560.860469,102.650667 560.412469,106.16 560.412469,108.624 C560.412469,111.237333 560.991136,113.328 562.148469,114.896 C563.305803,116.464 564.948469,117.64 567.076469,118.424 C569.204469,119.208 571.761803,119.6 574.748469,119.6 L608.348469,119.6 Z M596.812469,108.288 L578.668469,108.288 C575.905803,108.288 574.524469,107.429333 574.524469,105.712 C574.524469,105.04 574.860469,102.538667 575.532469,98.208 L575.868469,95.968 C576.316469,93.3546667 577.100469,91.768 578.220469,91.208 C579.340469,90.648 580.721803,90.368 582.364469,90.368 L599.948469,90.368 L596.812469,108.288 Z M636.526251,119.6 L645.598251,67.632 L667.102251,67.632 L658.030251,119.6 L671.918251,119.6 L680.990251,67.632 L693.758251,67.632 C697.342251,67.632 699.787584,67.9866667 701.094251,68.696 C702.400917,69.4053333 703.054251,70.6186667 703.054251,72.336 C703.054251,73.5306667 702.568917,76.816 701.598251,82.192 L694.990251,119.6 L708.878251,119.6 L715.710251,81.184 C716.904917,74.8373333 717.502251,70.2826667 717.502251,67.52 C717.502251,63.3386667 716.083584,60.3893333 713.246251,58.672 C710.408917,56.9546667 705.480917,56.096 698.462251,56.096 L633.726251,56.096 L622.638251,119.6 L636.526251,119.6 Z" id="AlloyTeam" stroke="#C4C4C4" fill-rule="nonzero"></path>
        </g>
    </g>
</svg>